<svg xmlns="http://www.w3.org/2000/svg" version="1.1" xmlns:xlink="http://www.w3.org/1999/xlink" xmlns:svgjs="http://svgjs.com/svgjs" width="1440" height="560" preserveAspectRatio="none" viewBox="0 0 1440 560"><g mask="url(&quot;#SvgjsMask1123&quot;)" fill="none"><rect width="1440" height="560" x="0" y="0" fill="rgba(21, 67, 96, 1)"></rect><path d="M0,443.548C87.658,449.688,178.751,440.646,253.599,394.608C329.143,348.142,387.44,273.665,413.847,188.998C438.815,108.946,418.249,23.679,394.361,-56.701C373.106,-128.221,340.152,-196.84,284.433,-246.462C232.476,-292.733,162.337,-306.062,94.945,-323.351C29.819,-340.059,-34.661,-353.325,-101.434,-345.454C-178.121,-336.414,-256.461,-322.571,-317.112,-274.779C-384.28,-221.851,-451.706,-151.019,-456.532,-65.639C-461.326,19.172,-381.084,80.801,-341.46,155.939C-304.606,225.824,-292.179,309.713,-231.751,360.611C-167.7,414.561,-83.539,437.696,0,443.548" fill="#11364d"></path><path d="M1440 1189.96C1558.541 1177.921 1594.777 1017.933 1682.42 937.213 1750.731 874.298 1854.261 851.1379999999999 1897.257 768.822 1941.001 685.074 1927.854 585.31 1915.129 491.687 1902.32 397.451 1882.8600000000001 301.986 1823.684 227.536 1763.17 151.402 1669.537 117.62900000000002 1582.819 73.60300000000001 1476.331 19.539999999999964 1376.958-70.86500000000001 1258.062-59.62300000000005 1134.295-47.91999999999996 1016.259 29.765999999999963 947.947 133.63400000000001 882.137 233.69799999999998 896.191 362.922 901.471 482.571 905.952 584.115 929.437 681.558 976.113 771.85 1021.054 858.7850000000001 1091.033 924.37 1163.7269999999999 989.89 1249.932 1067.588 1324.541 1201.6860000000001 1440 1189.96" fill="#195073"></path></g><defs><mask id="SvgjsMask1123"><rect width="1440" height="560" fill="#ffffff"></rect></mask></defs></svg>